<svg width="16" height="16" xmlns="http://www.w3.org/2000/svg">

 <g>
  <title>background</title>
  <rect fill="none" id="canvas_background" height="18" width="18" y="-1" x="-1"/>
 </g>
 <g>
  <title>Layer 1</title>
  <polygon id="svg_1" points="13.179,6.288 13.179,6.315 13.195,6.295  " fill="#515151"/>
  <path stroke="null" id="svg_2" fill="#667580" d="m7.992335,0.095486c-4.306832,0 -7.811406,3.504023 -7.811406,7.811406c0,4.307384 3.504574,7.811406 7.811406,7.811406c4.307384,0 7.811958,-3.503471 7.811958,-7.811406c0,-4.307384 -3.504574,-7.811406 -7.811958,-7.811406zm7.136517,7.811406c0,0.136742 -0.01213,0.270176 -0.020401,0.405265c-0.050176,-0.126817 -0.126266,-0.292232 -0.144462,-0.36336c-0.026466,-0.108071 -0.188021,-0.484663 -0.188021,-0.484663s-0.161554,-0.215038 -0.269074,-0.269074c-0.106968,-0.054035 -0.188021,-0.188572 -0.376593,-0.29554c-0.188572,-0.108071 -0.268522,-0.161554 -0.429525,-0.161554c-0.162106,0 -0.322558,-0.21559 -0.511681,-0.323109c-0.188572,-0.106968 -0.215038,-0.053484 -0.215038,-0.053484s0.215038,0.322558 0.215038,0.403059c0,0.080502 0.241505,0.215038 0.484663,0.161003c0,0 0.161003,0.296091 0.241505,0.376593c0.080502,0.080502 -0.027018,0.161554 -0.188021,0.269074c-0.161554,0.106968 -0.134537,0.080502 -0.216141,0.161003c-0.080502,0.080502 -0.349024,0.216141 -0.430077,0.269074c-0.080502,0.053484 -0.403059,0.215038 -0.564062,0.053484c-0.078847,-0.077745 -0.054587,-0.241505 -0.107519,-0.349575c-0.054035,-0.107519 -0.618649,-0.941206 -0.887722,-1.317248c-0.046867,-0.066166 -0.161554,-0.270176 -0.241505,-0.322558c-0.080502,-0.054587 0.188572,-0.054587 0.188572,-0.054587s0,-0.188572 -0.027018,-0.322558c-0.027569,-0.134537 0.027018,-0.322558 0.027018,-0.322558s-0.269074,0.161003 -0.350678,0.215038c-0.07995,0.054035 -0.161003,-0.106968 -0.267971,-0.242056c-0.107519,-0.133985 -0.21559,-0.296091 -0.242056,-0.430628c-0.027018,-0.133985 0.134537,-0.188021 0.134537,-0.188021l0.241505,-0.133985c0,0 0.296091,-0.053484 0.484663,-0.027018c0.188021,0.027018 0.483561,0.054035 0.483561,0.054035s0.080502,-0.188572 -0.027018,-0.269074c-0.106968,-0.080502 -0.350127,-0.215038 -0.457646,-0.188021c-0.106968,0.026466 0.053484,-0.134537 0.187469,-0.242056l-0.297745,-0.054035c0,0 -0.270728,0.134537 -0.351781,0.161554c-0.080502,0.026466 -0.220552,0.080502 -0.328623,0.215038c-0.106968,0.134537 0.043008,0.322558 -0.064512,0.376593c-0.106968,0.054035 -0.17975,0.080502 -0.260803,0.106968c-0.080502,0.027018 -0.336342,0 -0.336342,0c-0.277896,0 -0.0998,0.253635 -0.027569,0.34351l-0.215038,-0.262457l-0.159349,-0.376041c0,0 -0.229374,-0.161003 -0.336893,-0.214487c-0.107519,-0.054035 -0.438899,-0.242056 -0.438899,-0.242056l0.023158,0.242056l0.31153,0.31539l0.027569,0.007168l0.162106,0.215038l-0.357846,0.027018l0,-0.212833c-0.337445,-0.081604 -0.249224,-0.165414 -0.287269,-0.191329c-0.07995,-0.053484 -0.266868,-0.188572 -0.266868,-0.188572s-0.316492,0.054035 -0.397545,0.081053c-0.081053,0.027018 -0.10366,0.107519 -0.264111,0.161003c-0.162106,0.054035 -0.234888,0.134537 -0.288372,0.215038s-0.228823,0.322558 -0.335239,0.430077c-0.108071,0.108071 -0.30767,0.080502 -0.388172,0.080502c-0.081053,0 -0.469225,-0.107519 -0.469225,-0.107519l0,-0.455992c0,0 0.052381,-0.255841 0.025915,-0.336342l0.235439,-0.039699l0.393134,-0.081053l0.115239,-0.081053l0.165414,-0.215038c0,0 -0.185815,-0.134537 -0.05183,-0.322558c0.064512,-0.090426 0.296643,-0.107519 0.404162,-0.188021c0.106968,-0.080502 0.269625,-0.134537 0.269625,-0.134537s0.188572,-0.161003 0.376593,-0.349575c0,0 0.134537,-0.081053 0.29554,-0.135088c0,0 0.457646,0.40361 0.538699,0.40361s0.376593,-0.188021 0.376593,-0.188021s0.080502,-0.241505 0.054035,-0.322558c-0.027018,-0.080502 -0.161554,-0.349575 -0.161554,-0.349575s-0.080502,0.134537 -0.161003,0.242056s-0.134537,0.242056 -0.134537,0.242056s-0.376593,-0.025915 -0.403059,-0.106416c-0.027569,-0.081053 -0.080502,-0.213936 -0.108071,-0.293886c-0.025915,-0.081053 -0.241505,-0.078296 -0.401956,-0.024261c-0.162106,0.054035 0.025915,-0.290026 0.025915,-0.290026s0.162106,-0.202908 0.269074,-0.202908s0.350127,-0.137845 0.456543,-0.164311c0.108071,-0.027018 0.431731,-0.149975 0.565165,-0.149975c0.134537,0 0.296091,0.057895 0.377144,0.057895s0.403059,0 0.403059,0l0.564062,-0.045213c0,0 0.484663,0.179199 0.322558,0.287269c0,0 0.189123,0.116341 0.269625,0.196843c0.075539,0.07609 0.270728,-0.070025 0.382658,-0.132331c2.011987,1.262661 3.357355,3.496303 3.357355,6.043129zm-12.831174,-4.208135c0,0.107519 -0.146667,0.133434 0,0.40361c0.187469,0.349575 0.026466,0.51113 0.026466,0.51113s-0.457646,0.322558 -0.538147,0.376593c-0.080502,0.054035 -0.29554,0.349575 -0.161554,0.268522c0.134537,-0.080502 0.29554,-0.161003 0.161554,0.054035c-0.134537,0.21559 -0.376593,0.564614 -0.430077,0.699702s-0.322558,0.457094 -0.322558,0.618649c0,0.161554 -0.107519,0.484663 -0.080502,0.6192c0.018196,0.093735 -0.041354,0.369976 -0.088221,0.483561c0.036391,-1.511885 0.545315,-2.905223 1.385619,-4.044927c0.027569,0.002757 0.047419,0.009925 0.047419,0.009925zm0.864013,-1.031081c0.657797,-0.60707 1.428627,-1.091182 2.278855,-1.418702c-0.08381,0.107519 -0.185264,0.217795 -0.185264,0.217795s-0.188021,-0.000551 -0.538147,0.376593c-0.349024,0.376593 -0.268522,0.269074 -0.349024,0.376041s-0.054035,0.134537 -0.242607,0.269625c-0.187469,0.133985 -0.268522,0.29554 -0.268522,0.29554l-0.296091,0.107519l-0.241505,-0.107519c0,0 -0.216141,0.081053 -0.189123,-0.027018c0.007719,-0.028672 0.019298,-0.058446 0.031429,-0.089875zm3.22337,0.627471l-0.106968,-0.161003l0.106968,-0.242056l0.259149,0.10366l0,-0.480252l0.24757,-0.133985l0.205665,0.29554l0.316492,0.350127l-0.210076,0.161003l-0.560202,0.107519l0,-0.285064l-0.258597,0.284512zm3.496855,2.528079c0.062857,-0.049624 0.268522,0.080502 0.268522,0.080502s0.672133,0.134537 0.779652,0.215038c0.108071,0.081053 0.296091,0.135088 0.350127,0.216141c0.054035,0.080502 0.241505,0.322558 0.267971,0.403059c0.027569,0.080502 0.162106,0.377144 0.189123,0.484112c0.027018,0.107519 0.107519,0.376593 0.188021,0.51113c0.080502,0.135088 0.538147,0.726168 0.69915,0.995242l0.485215,-0.080502c0,0 -0.054587,0.241505 -0.108071,0.322558c-0.053484,0.080502 -0.215038,0.29554 -0.29554,0.403059c-0.081053,0.107519 -0.188021,0.269074 -0.349575,0.403059c-0.161003,0.133985 -0.162106,0.268522 -0.242056,0.376593c-0.080502,0.107519 -0.188572,0.349575 -0.188572,0.349575s0.054035,0.538147 0.080502,0.645666s-0.188021,0.403059 -0.188021,0.403059l-0.242607,0.242607l-0.324212,0.429525l0.026466,0.403059c0,0 -0.244813,0.189123 -0.379901,0.296091c-0.133434,0.106968 -0.112482,0.188021 -0.220001,0.296091c-0.106968,0.106968 -0.527671,0.29554 -0.63519,0.322558s-0.700805,0.107519 -0.700805,0.107519l0,-0.241505l-0.01213,-0.269074c0,0 -0.081604,-0.322558 -0.162657,-0.430077s-0.045765,-0.269625 -0.180301,-0.40361c-0.134537,-0.134537 -0.184161,-0.241505 -0.211179,-0.323109c-0.027018,-0.080502 0.029223,-0.322006 0.029223,-0.322006s0.108622,-0.296091 0.162106,-0.40361c0.054035,-0.107519 0.000551,-0.268522 -0.053484,-0.376593s-0.07995,-0.377144 -0.07995,-0.457094c0,-0.080502 -0.216141,-0.21559 -0.296643,-0.296091c-0.080502,-0.080502 -0.053484,-0.188572 -0.053484,-0.294989c0,-0.108622 -0.080502,-0.350127 -0.054035,-0.538699c0.027018,-0.188021 -0.241505,-0.054035 -0.403059,0c-0.161554,0.054035 -0.268522,-0.054035 -0.268522,-0.21559s-0.29554,-0.026466 -0.484112,0.080502c-0.189123,0.107519 -0.40361,0.107519 -0.619752,0.188572c-0.214487,0.080502 -0.321455,-0.080502 -0.321455,-0.080502s-0.189123,-0.161003 -0.322558,-0.242056c-0.135088,-0.080502 -0.269625,-0.241505 -0.377696,-0.376041c-0.106968,-0.135088 -0.376593,-0.538699 -0.402508,-0.69915c-0.027018,-0.162106 0,-0.270176 0,-0.458197s0,-0.29554 0.026466,-0.430077c0.027018,-0.134537 0.107519,-0.296091 0.188572,-0.430628c0.080502,-0.134537 0.376593,-0.29554 0.456543,-0.349575c0.080502,-0.053484 0.269074,-0.214487 0.269074,-0.322558c0,-0.107519 0.108071,-0.161003 0.161003,-0.269074c0.054587,-0.107519 0.242607,-0.376041 0.484663,-0.268522c0,0 0.214487,-0.026466 0.294989,-0.053484s0.29554,-0.106968 0.401956,-0.161003c0.107519,-0.054035 0.37549,-0.079399 0.37549,-0.079399s0.21173,0.084361 0.292232,0.084361s0.342959,-0.046867 0.342959,-0.046867s0.121304,0.389826 0.121304,0.470879s0.080502,0.161003 0.21559,0.215038c0.132883,0.054587 0.752083,0.189675 1.021157,-0.025915zm3.092693,5.271748c0,0.080502 -0.027018,0.296091 -0.054035,0.40361c-0.02812,0.107519 -0.081053,0.296091 -0.107519,0.402508c-0.027018,0.108071 -0.161554,0.323109 -0.241505,0.377144c-0.080502,0.054035 -0.21559,0.21559 -0.29554,0.242056c-0.080502,0.027018 -0.135088,-0.188572 -0.108071,-0.296091c0.027569,-0.107519 0.161554,-0.403059 0.161554,-0.403059s0.027018,-0.161003 0.053484,-0.269074c0.027569,-0.106968 0.350127,-0.241505 0.350127,-0.241505l0.21559,-0.40361c-0.001103,-0.000551 0.025915,0.108071 0.025915,0.188021zm-11.934629,-1.602311c0.034737,0.008822 0.084361,0.034186 0.154387,0.096492c0.101454,0.088221 0.161554,0.133434 0.296091,0.188021c0.133985,0.054587 0.188021,0.133985 0.349575,0.215038c0.161554,0.081053 0.108071,0.027569 0.322558,0.269074c0.21559,0.241505 0.188572,0.241505 0.242056,0.376593s0.134537,0.268522 0.188572,0.350127c0.054035,0.080502 0.215038,0.133985 0.29554,0.188021s0.215038,0.107519 0.29554,0.107519c0.081053,0 0.323109,0.242056 0.457646,0.268522c0.134537,0.027569 0.134537,0.296643 0.134537,0.296643l-0.134537,0.376041l-0.108071,0.403059l0.108071,0.322558c0,0 -0.162106,0.135088 -0.268522,0.135088c-0.099248,0 -0.132883,0.062857 -0.241505,0.033083c-1.025568,-0.957748 -1.76938,-2.210484 -2.091937,-3.625878z"/>
 </g>
</svg>