<svg width="68" height="68" xmlns="http://www.w3.org/2000/svg">

 <g>
  <title>background</title>
  <rect fill="none" id="canvas_background" height="70" width="70" y="-1" x="-1"/>
 </g>
 <g>
  <title>Layer 1</title>
  <path id="svg_3" fill="#667580" d="m58.344578,16.390015c-0.55273,0 -1.10254,-0.22754 -1.49805,-0.67383l-0.14209,-0.15918c-0.73584,-0.82373 -0.66504,-2.08789 0.15821,-2.82422c0.82421,-0.73486 2.08789,-0.66455 2.82421,0.15821l0.15381,0.17285c0.73243,0.82666 0.65576,2.09082 -0.1709,2.82324c-0.38037,0.33691 -0.854,0.50293 -1.32519,0.50293z"/>
  <path id="svg_5" fill="#667580" d="m61.344578,20.390015c-0.55273,0 -1.10254,-0.22754 -1.49805,-0.67383l-0.14209,-0.15918c-0.73584,-0.82373 -0.66504,-2.08789 0.15821,-2.82422c0.82421,-0.73486 2.08789,-0.66504 2.82421,0.15821l0.15381,0.17285c0.73243,0.82666 0.65576,2.09082 -0.1709,2.82324c-0.38037,0.33691 -0.854,0.50293 -1.32519,0.50293z"/>
  <path id="svg_7" fill="#667580" d="m63.310888,25.411015c-0.80029,0 -1.55567,-0.4834 -1.86377,-1.27393l-0.07715,-0.19531c-0.40771,-1.02686 0.09424,-2.18945 1.12061,-2.59717c1.02783,-0.40674 2.18994,0.09424 2.59716,1.12061l0.08594,0.21875c0.40137,1.0288 -0.10742,2.18847 -1.13672,2.58984c-0.23828,0.09326 -0.48437,0.13721 -0.72607,0.13721z"/>
  <path id="svg_9" fill="#667580" d="m64.310888,30.411015c-0.80029,0 -1.55567,-0.4834 -1.86377,-1.27393l-0.07715,-0.19531c-0.40771,-1.02686 0.09424,-2.18945 1.12061,-2.59717c1.02734,-0.40674 2.18945,0.09424 2.59716,1.12061l0.08594,0.21875c0.40137,1.0288 -0.10742,2.18847 -1.13672,2.58984c-0.23828,0.09326 -0.48437,0.13721 -0.72607,0.13721z"/>
  <path id="svg_11" fill="#667580" d="m4.931008,25.542355c-0.2212,0 -0.44629,-0.03711 -0.667,-0.11474c-1.0415,-0.36865 -1.58691,-1.51123 -1.21875,-2.55274c4.64746,-13.13769 17.1377,-21.96484 31.08008,-21.96484c7.37158,0 14.34277,2.37988 20.15869,6.88184c0.54199,0.41943 1.07032,0.85546 1.58448,1.30712c0.82959,0.72901 0.91113,1.99268 0.18212,2.82276c-0.729,0.8291 -1.99218,0.91113 -2.82275,0.18213c-0.45166,-0.39698 -0.9165,-0.78028 -1.39258,-1.14942c-5.1084,-3.9541 -11.23242,-6.04443 -17.70996,-6.04443c-12.25098,0 -23.22558,7.75537 -27.30859,19.29883c-0.29053,0.8208 -1.06201,1.33349 -1.88574,1.33349z"/>
  <path id="svg_13" stroke-width="4" stroke-miterlimit="10" stroke-linejoin="round" stroke-linecap="round" stroke="#3399CC" fill="#667580" d="m13.916908,16.493365"/>
  <path id="svg_15" stroke-width="4" stroke-miterlimit="10" stroke-linejoin="round" stroke-linecap="round" stroke="#3399CC" fill="#667580" d="m4.930918,23.542085"/>
  <path id="svg_17" fill="#667580" d="m10.045748,55.096555c-0.54932,0 -1.09668,-0.22509 -1.4917,-0.66699l-0.15967,-0.18017c-0.72851,-0.83057 -0.64599,-2.09375 0.18457,-2.82227c0.83008,-0.729 2.09375,-0.64551 2.82227,0.18457l0.13525,0.15186c0.73584,0.82373 0.66504,2.08789 -0.1582,2.82421c-0.38184,0.34082 -0.85791,0.50879 -1.33252,0.50879z"/>
  <path id="svg_19" fill="#667580" d="m7.045748,51.096555c-0.54932,0 -1.09668,-0.22509 -1.4917,-0.66699l-0.15967,-0.18017c-0.72851,-0.83057 -0.64599,-2.09375 0.18457,-2.82227c0.82959,-0.72998 2.09327,-0.646 2.82227,0.18457l0.13525,0.15186c0.73584,0.82373 0.66504,2.08789 -0.1582,2.82421c-0.38184,0.34082 -0.85791,0.50879 -1.33252,0.50879z"/>
  <path id="svg_21" fill="#667580" d="m5.012548,46.117555c-0.79541,0 -1.54785,-0.47803 -1.85938,-1.26221l-0.0874,-0.22314c-0.39892,-1.02979 0.11279,-2.18799 1.14307,-2.5874c1.02978,-0.39649 2.18847,0.11279 2.5874,1.14306l0.07471,0.19092c0.40771,1.02686 -0.09424,2.18945 -1.12061,2.59717c-0.24219,0.09619 -0.49219,0.1416 -0.73779,0.1416z"/>
  <path id="svg_23" fill="#667580" d="m4.012548,41.117555c-0.79541,0 -1.54785,-0.47803 -1.85938,-1.26221l-0.0874,-0.22314c-0.39892,-1.02979 0.11279,-2.18799 1.14307,-2.5874c1.02978,-0.39698 2.18799,0.11279 2.5874,1.14306l0.07471,0.19092c0.40771,1.02686 -0.09424,2.18945 -1.12061,2.59717c-0.24219,0.09619 -0.49219,0.1416 -0.73779,0.1416z"/>
  <path id="svg_25" fill="#667580" d="m2.464698,28.712765c-0.3545,0 -0.70801,-0.09423 -1.02246,-0.28125c-0.60157,-0.35791 -0.97217,-1.0039 -0.97754,-1.7041l-0.08545,-11.57153c-0.0083,-1.10449 0.88086,-1.99585 1.98535,-1.99585c0.00488,0 0.00976,0 0.01514,0c1.09765,0 1.99121,0.86694 1.99951,1.96655l0.06103,8.27527l7.31055,-3.90314c0.97363,-0.51953 2.18555,-0.1542 2.70557,0.82138c0.52002,0.97461 0.15087,2.18486 -0.82373,2.7044l-10.22706,5.45351c-0.29443,0.15723 -0.61767,0.23476 -0.94091,0.23476z"/>
  <path id="svg_27" fill="#667580" d="m33.802098,66.712765c-7.37158,0 -14.34277,-2.37988 -20.15869,-6.88183c-0.54199,-0.41944 -1.07031,-0.85547 -1.58448,-1.30713c-0.82958,-0.729 -0.91113,-1.99268 -0.18212,-2.82275c0.729,-0.82862 1.99218,-0.91065 2.82275,-0.18213c0.45166,0.39697 0.9165,0.78027 1.39258,1.14941c5.1084,3.9541 11.23242,6.04443 17.70996,6.04443c12.25098,0 23.22558,-7.75537 27.30859,-19.29882c0.36865,-1.04053 1.51172,-1.58594 2.55274,-1.21875c1.0415,0.36865 1.58691,1.51123 1.21875,2.55273c-4.64746,13.1377 -17.1377,21.96484 -31.08008,21.96484z"/>
  <path id="svg_29" fill="#667580" d="m65.547698,54.160035c-1.09765,0 -1.99121,-0.71558 -1.99951,-1.81519l-0.06103,-8.19958l-7.31055,3.94098c-0.97412,0.51953 -2.18652,0.17166 -2.70557,-0.80246c-0.52002,-0.97461 -0.15087,-2.1754 0.82373,-2.69493l10.22706,-5.44879c0.61718,-0.33007 1.36181,-0.30935 1.96337,0.04857s0.97217,1.00523 0.97754,1.70542l0.08545,11.42083c0.0083,1.1045 -0.88086,1.84515 -1.98535,1.84515c-0.00488,0 -0.00976,0 -0.01514,0z"/>
 </g>
</svg>